<?xml version="1.0" standalone="no"?>
<!DOCTYPE svg PUBLIC "-//W3C//DTD SVG 20010904//EN"
 "http://www.w3.org/TR/2001/REC-SVG-20010904/DTD/svg10.dtd">
<svg version="1.0" xmlns="http://www.w3.org/2000/svg"
 width="300.000000pt" height="300.000000pt" viewBox="0 0 300.000000 300.000000"
 preserveAspectRatio="xMidYMid meet">
<metadata>
Created by potrace 1.11, written by Peter Selinger 2001-2013
</metadata>
<g transform="translate(0.000000,300.000000) scale(0.100000,-0.100000)"
fill="#000000" stroke="none">
<path d="M1887 2976 c-45 -13 -93 -57 -111 -100 -9 -22 -41 -50 -110 -95 -95
-63 -96 -65 -111 -120 -9 -31 -22 -81 -31 -111 -13 -48 -15 -189 -12 -1085 l3
-1030 48 -83 c46 -79 47 -84 36 -121 -28 -93 19 -185 109 -212 72 -21 129 6
200 95 10 13 33 16 121 16 l109 0 25 -34 c55 -72 160 -87 231 -32 45 34 56 54
63 119 5 44 15 63 61 119 49 61 58 68 91 68 45 0 95 30 121 72 26 43 27 122 1
163 -18 30 -18 30 6 46 19 13 31 14 61 6 58 -15 110 -1 153 42 63 63 65 152 4
220 l-35 38 -2 179 -3 179 -55 28 c-30 15 -54 33 -53 40 0 7 16 81 34 165 l33
152 40 23 c129 71 107 259 -35 301 -39 12 -51 25 -131 135 l-89 123 21 42 c26
54 25 91 -2 146 -28 55 -94 94 -148 86 -41 -5 -206 59 -221 86 -5 9 -11 38
-14 64 -4 26 -10 55 -15 63 -5 9 -50 32 -99 51 -80 31 -92 39 -101 66 -24 71
-115 114 -193 90z m88 -111 c14 -13 25 -33 25 -45 0 -27 -43 -70 -70 -70 -27
0 -70 43 -70 70 0 27 43 70 70 70 12 0 32 -11 45 -25z m168 -139 c53 -24 55
-27 60 -68 11 -101 38 -261 47 -279 16 -29 46 -42 71 -28 20 10 21 17 17 85
-3 41 -4 74 -2 74 2 0 15 -5 29 -12 18 -8 24 -16 18 -27 -4 -9 -9 -41 -11 -71
-3 -45 1 -61 20 -89 35 -51 73 -75 130 -81 l51 -5 80 -109 c53 -73 77 -113 71
-121 -38 -51 -47 -71 -51 -109 -7 -62 12 -111 59 -149 41 -33 42 -37 24 -112
-3 -11 -12 -57 -22 -101 -22 -107 -23 -109 -65 -90 -19 8 -49 20 -66 26 l-33
12 0 122 c0 82 -4 126 -12 134 -7 7 -44 12 -95 12 l-83 0 0 88 0 87 37 20 c54
30 76 66 81 132 3 48 0 64 -20 92 -33 49 -69 72 -120 78 -54 6 -116 -22 -150
-67 l-22 -30 -193 0 -193 0 0 101 c0 138 -1 139 -105 139 l-85 0 0 58 c0 31 8
92 17 136 l18 78 69 45 69 45 21 -25 c65 -77 196 -75 258 4 13 16 24 29 24 29
1 0 26 -11 57 -24z m441 -288 c24 -34 20 -73 -10 -97 -33 -26 -45 -26 -76 -1
-34 27 -39 53 -17 89 15 25 25 31 53 31 25 0 39 -7 50 -22z m-884 -255 c0
-138 4 -143 112 -143 l78 0 0 -92 -1 -93 -38 -26 c-94 -65 -92 -214 3 -270 24
-14 35 -29 38 -49 3 -17 2 -32 0 -35 -3 -3 -68 -5 -144 -5 l-138 0 0 410 0
410 45 0 45 0 0 -107z m670 -48 c39 -20 49 -59 23 -93 -29 -39 -74 -41 -102
-6 -28 36 -27 50 8 85 34 34 33 34 71 14z m-173 -132 c10 -21 35 -49 56 -62
l37 -24 0 -89 0 -88 -92 0 -93 0 -20 38 c-11 21 -36 46 -57 57 l-38 20 0 93 0
92 94 0 94 0 19 -37z m684 -93 c23 -23 29 -35 24 -52 -18 -59 -70 -75 -112
-36 -30 28 -29 63 2 93 32 33 50 31 86 -5z m-895 -163 c34 -29 36 -73 4 -99
-30 -24 -65 -23 -90 4 -27 29 -25 64 5 93 30 31 47 31 81 2z m423 -103 l61 -7
0 -102 c0 -83 3 -107 18 -123 9 -11 62 -41 117 -65 55 -25 126 -56 158 -70
l57 -26 0 -134 0 -134 -39 -12 c-43 -12 -97 -67 -107 -107 -4 -14 -4 -50 -1
-80 4 -43 3 -54 -9 -54 -11 0 -14 23 -14 119 0 111 1 120 20 126 25 8 74 53
89 82 14 27 14 77 1 123 -20 67 -117 118 -191 101 -44 -10 -92 -49 -112 -91
-12 -24 -16 -25 -129 -28 l-117 -3 -10 38 c-5 21 -22 85 -37 143 -14 58 -31
110 -36 117 -5 7 -37 13 -71 15 -61 3 -62 4 -65 33 -2 26 3 33 38 53 24 14 48
37 57 58 l17 34 121 0 c67 0 150 -3 184 -6z m-320 -396 c48 -191 34 -178 200
-178 l139 0 61 -61 61 -61 0 -128 0 -128 -30 -12 c-92 -38 -129 -167 -71 -248
l19 -28 -31 -37 c-31 -36 -33 -37 -64 -25 -37 14 -33 -4 -35 198 0 41 -5 81
-10 88 -7 8 -45 12 -124 12 l-114 0 0 38 c0 33 4 39 38 57 42 23 82 91 82 140
-1 47 -35 112 -72 135 -24 14 -50 20 -95 20 -58 0 -66 -3 -103 -36 -21 -19
-42 -44 -45 -55 -6 -18 -17 -19 -146 -19 l-139 0 0 230 0 230 223 0 223 0 33
-132z m559 -74 c46 -32 15 -116 -43 -116 -37 0 -78 44 -69 75 14 51 69 71 112
41z m-564 -246 c35 -33 40 -60 15 -91 -52 -67 -148 0 -108 74 9 18 39 36 61
38 4 1 18 -9 32 -21z m799 -65 c32 -37 22 -96 -20 -111 -49 -17 -93 15 -93 67
0 51 79 81 113 44z m-976 -74 c10 -17 33 -39 51 -51 31 -19 32 -22 32 -82 0
-84 16 -106 79 -106 26 0 76 -3 110 -6 l61 -7 0 -91 -1 -91 -32 -20 c-28 -18
-70 -69 -79 -95 -2 -6 -51 -13 -109 -16 l-106 -7 -19 39 c-27 53 -91 86 -159
82 l-50 -2 -37 64 -38 65 0 177 0 178 139 0 140 0 18 -31z m737 -221 c21 -30
20 -50 -5 -82 -13 -17 -30 -26 -49 -26 -31 0 -70 39 -70 69 0 35 30 61 70 61
29 0 43 -6 54 -22z m-304 -328 c24 -24 26 -57 4 -88 -20 -29 -74 -30 -99 -2
-56 62 36 149 95 90z m-537 -18 c23 -21 21 -61 -5 -89 -40 -43 -108 -18 -108
40 0 37 7 49 35 65 23 13 52 7 78 -16z"/>
<path d="M1014 2879 c-113 -43 -182 -138 -191 -265 -5 -64 -8 -74 -22 -68 -9
3 -43 8 -76 11 -168 14 -370 -106 -441 -262 -32 -69 -53 -188 -45 -246 10 -70
9 -74 -46 -117 -101 -80 -151 -190 -140 -309 7 -69 42 -150 84 -195 l26 -27
-47 -52 c-80 -89 -111 -168 -115 -290 -1 -42 3 -98 10 -125 29 -119 126 -244
234 -300 l55 -29 0 -92 c0 -121 23 -183 96 -262 94 -101 232 -143 354 -107 30
9 61 20 68 25 9 5 33 -3 68 -24 70 -42 140 -59 218 -53 116 10 235 88 287 190
49 96 48 82 49 1238 0 1155 1 1131 -48 1226 -64 125 -240 187 -378 133z m216
-109 c47 -24 84 -77 100 -140 8 -32 10 -371 8 -1140 -3 -1092 -3 -1095 -24
-1141 -29 -62 -93 -121 -155 -143 -59 -21 -128 -16 -198 15 l-44 19 21 23 c40
43 76 129 80 193 4 55 2 63 -19 78 -13 9 -27 16 -31 16 -18 0 -48 -42 -48 -68
0 -98 -87 -209 -187 -238 -88 -26 -176 -6 -247 56 -55 49 -78 101 -85 197 l-7
83 46 0 c53 0 70 13 70 52 0 33 -17 43 -90 51 -119 14 -234 100 -288 215 -23
49 -27 70 -27 147 0 82 3 97 33 157 55 112 154 183 278 198 75 9 94 22 94 61
0 55 -53 62 -181 24 l-84 -25 -33 37 c-46 52 -68 133 -54 200 13 63 53 128 94
153 30 18 31 18 59 -3 26 -18 31 -19 55 -7 30 17 29 40 -6 135 -46 125 -11
277 89 374 62 60 126 91 210 100 86 9 142 -1 217 -40 73 -37 105 -36 119 5 9
26 6 31 -22 55 -79 66 -69 200 21 278 20 18 49 35 64 39 15 3 32 7 37 10 21 8
97 -7 135 -26z"/>
<path d="M753 2270 c-18 -7 -23 -17 -23 -44 0 -43 9 -48 76 -50 89 -2 126 -55
103 -147 -15 -57 -3 -79 42 -79 33 0 54 32 65 98 6 37 9 40 45 45 22 3 56 17
75 32 29 22 35 32 32 58 -4 44 -43 58 -84 29 -54 -38 -78 -36 -128 8 -63 54
-144 74 -203 50z"/>
<path d="M468 1928 c-10 -8 -18 -34 -20 -71 -4 -54 -8 -62 -46 -97 -23 -21
-42 -44 -42 -52 0 -22 33 -48 62 -48 16 0 32 -9 42 -24 19 -30 49 -40 76 -26
27 14 26 62 -1 99 -20 27 -20 30 -5 59 9 17 16 55 16 86 0 45 -4 58 -22 70
-27 19 -39 20 -60 4z"/>
<path d="M938 1653 c-18 -21 -17 -32 12 -97 28 -62 21 -110 -19 -131 -41 -21
-96 -88 -109 -134 -15 -50 -15 -124 0 -139 7 -7 24 -12 38 -12 36 0 50 17 50
63 0 119 117 192 221 138 23 -12 49 -19 60 -16 25 8 42 41 34 66 -7 22 -96 69
-131 69 -18 0 -22 8 -28 56 -10 86 -50 154 -91 154 -12 0 -29 -8 -37 -17z"/>
<path d="M592 954 c-30 -21 -28 -45 9 -98 44 -61 49 -126 18 -192 -35 -74 -37
-87 -21 -106 40 -47 110 14 133 116 l11 52 67 0 c138 0 242 80 167 129 -23 15
-27 15 -63 -4 -54 -27 -103 -34 -149 -22 -32 9 -44 19 -63 56 -22 42 -63 85
-80 85 -4 0 -17 -7 -29 -16z"/>
</g>
</svg>
